# AST/ASF file generated using VICON BodyLanguage
# -----------------------------------------------
:version 1.10
:name VICON
:units
  mass 1.0
  length 0.45
  angle deg
:documentation
   .ast/.asf automatically generated from VICON data using
   VICON BodyBuilder and BodyLanguage model FoxedUp or BRILLIANT.MOD
:root
   order TX TY TZ RX RY RZ
   axis XYZ
   position 0 0 0  
   orientation 0 0 0 
:bonedata
  begin
     id 1 
     name lhipjoint
     direction 0.682418 -0.694059 0.22932 
     length 2.25561 
     axis 0 0 0  XYZ
  end
  begin
     id 2 
     name lfemur
     direction 0.34202 -0.939693 0  
     length 6.96448  
     axis 0 0 20  XYZ
    dof rx ry rz
    limits (-160.0 20.0)
           (-70.0 70.0)
           (-60.0 70.0)
  end
  begin
     id 3 
     name ltibia
     direction 0.34202 -0.939693 0   
     length 6.88553   
     axis 0 0 20   XYZ
    dof rx
    limits (-10.0 170.0)
  end
  begin
     id 4 
     name lfoot
     direction 0.0723587 -0.198804 0.977364   
     length 1.88518   
     axis -90 7.62852e-016 20   XYZ
    dof rx rz
    limits (-45.0 90.0)
           (-70.0 20.0)
  end
  begin
     id 5 
     name ltoes
     direction 1.53558e-011 -4.21962e-011 1   
     length 0.952124   
     axis -90 7.62852e-016 20   XYZ
    dof rx
    limits (-90.0 20.0)
  end
  begin
     id 6 
     name rhipjoint
     direction -0.657603 -0.71533 0.236348   
     length 2.18854  
     axis 0 0 0  XYZ 
  end
  begin
     id 7 
     name rfemur
     direction -0.34202 -0.939693 0   
     length 6.86686   
     axis 0 0 -20   XYZ
    dof rx ry rz
    limits (-160.0 20.0)
           (-70.0 70.0)
           (-70.0 60.0)
  end
  begin
     id 8 
     name rtibia
     direction -0.34202 -0.939693 0   
     length 6.59503   
     axis 0 0 -20   XYZ
    dof rx
    limits (-10.0 170.0)
 end
 begin
     id 9 
     name rfoot
     direction -0.101977 -0.280179 0.954516   
     length 1.93723  
     axis -90 -7.62852e-016 -20   XYZ
    dof rx rz
    limits (-45.0 90.0)
           (-20.0 70.0)
  end
  begin
     id 10 
     name rtoes
     direction -1.53564e-011 -4.21897e-011 1   
     length 0.970315   
     axis -90 -7.62852e-016 -20   XYZ
    dof rx
    limits (-90.0 20.0)
  end
  begin
     id 11 
     name lowerback
     direction -0.0339559 0.999421 -0.00235966   
     length 1.88543   
     axis 0 0 0   XYZ
    dof rx ry rz
    limits (-20.0 45.0)
           (-30.0 30.0)
           (-30.0 30.0)
  end
  begin
     id 12 
     name upperback
     direction 0.00401003 0.999739 0.0224689   
     length 1.8856   
     axis 0 0 0   XYZ
    dof rx ry rz
    limits (-20.0 45.0)
           (-30.0 30.0)
           (-30.0 30.0)
  end
  begin
     id 13 
     name thorax
     direction 0.0198619 0.999546 0.0226536   
     length 1.88352   
     axis 0 0 0   XYZ
    dof rx ry rz
    limits (-20.0 45.0)
           (-30.0 30.0)
           (-30.0 30.0)
  end
  begin
     id 14 
     name lowerneck
     direction -0.0461848 0.998632 0.0245198   
     length 1.34895   
     axis 0 0 0   XYZ
    dof rx ry rz
    limits (-20.0 45.0)
           (-30.0 30.0)
           (-30.0 30.0)
  end
  begin
     id 15 
     name upperneck
     direction -0.0180627 0.994724 -0.100984   
     length 1.35214   
     axis 0 0 0   XYZ
    dof rx ry rz
    limits (-20.0 45.0)
           (-30.0 30.0)
           (-30.0 30.0)
  end
  begin
     id 16
     name head
     direction -0.00374772 0.999293 -0.037403  
     length 1.3568  
     axis 0 0 0   XYZ
    dof rx ry rz
    limits (-20.0 45.0)
           (-30.0 30.0)
           (-30.0 30.0)
  end
  begin
     id 17 
     name lclavicle
     direction 0.971773 0.191119 0.138311  
     length 2.84954  
     axis 0 0 0   XYZ
    dof ry rz
    limits (-20.0 10.0)
           (0.0 20.0)
  end
  begin
     id 18 
     name lhumerus
     direction 1 -4.4897e-011 -2.43761e-027   
     length 4.40919   
     axis 180 -30 -90   XYZ
    dof rx ry rz
    limits (-60.0 90.0)
           (-90.0 90.0)
           (-90.0 90.0)
  end
  begin
     id 19
     name lradius
     direction 1 -4.4896e-011 -9.1621e-027   
     length 3.03857   
     axis 180 -30 -90   XYZ
    dof rx
    limits (-10.0 170.0)
  end
  begin
     id 20
     name lwrist
     direction 1 -4.4896e-011 -1.41363e-026   
     length 1.51928   
     axis 1.07133e-014 90 90   XYZ
    dof ry
    limits (-180.0 0.0)
 end
  begin
     id 21 
     name lhand
     direction 1 -4.48978e-011 -2.82725e-026   
     length 0.523208   
     axis 1.80403e-014 90 90   XYZ
    dof rx rz
    limits (-90.0 90.0)
           (-45.0 45.0)
  end
  begin
     id 22 
     name lfingers
     direction 1 -4.48977e-011 -5.6545e-026   
     length 0.421824   
     axis 3.60806e-014 90 90   XYZ
    dof rx
    limits (0.0 90.0)
  end
  begin
     id 23
     name lthumb
     direction 0.707107 -6.34962e-011 0.707107   
     length 0.605657   
     axis -90 45 2.85299e-015   XYZ
    dof rx rz
    limits (-45.0 45.0)
           (-45.0 45.0)
  end
  begin
     id 24 
     name rclavicle
     direction -0.957247 0.24311 0.156766   
     length 3.12406  
     axis 0 0 0   XYZ 
    dof ry rz
    limits (-10.0 20.0)
           (-20.0 0.0)
  end
  begin
     id 25 
     name rhumerus
     direction -1 -4.48964e-011 -1.70632e-027  
     length 4.61969   
     axis 180 30 90   XYZ
    dof rx ry rz
    limits (-90.0 60.0)
           (-90.0 90.0)
           (-90.0 90.0)
  end
  begin
     id 26 
     name rradius
     direction -1 -4.48966e-011 -6.60395e-027   
     length 3.09382   
     axis 180 30 90   XYZ
    dof rx
    limits (-10.0 170.0)
  end
  begin
     id 27 
     name rwrist
     direction -1 -4.48963e-011 -1.41363e-026   
     length 1.54691   
     axis 1.07133e-014 -90 -90   XYZ
    dof ry
    limits (-180.0 0.0)
  end
  begin
     id 28
     name rhand
     direction -1 -4.49013e-011 -2.82725e-026   
     length 0.500896   
     axis 1.80403e-014 -90 -90   XYZ
    dof rx rz
    limits (-90.0 90.0)
           (-45.0 45.0)
  end
  begin
     id 29
     name rfingers
     direction -1 -4.48902e-011 -5.6545e-026   
     length 0.403835   
     axis 3.60806e-014 -90 -90   XYZ
    dof rx
    limits (0.0 90.0)
  end
  begin
     id 30
     name rthumb
     direction -0.707107 -6.34953e-011 0.707107   
     length 0.579829   
     axis -90 -45 -2.85299e-015   XYZ
    dof rx rz
    limits (-45.0 45.0)
           (-45.0 45.0)
  end
:hierarchy
  begin
    root lhipjoint rhipjoint lowerback
    lhipjoint lfemur
    lfemur ltibia
    ltibia lfoot
    lfoot ltoes
    rhipjoint rfemur
    rfemur rtibia
    rtibia rfoot
    rfoot rtoes
    lowerback upperback
    upperback thorax
    thorax lowerneck lclavicle rclavicle
    lowerneck upperneck
    upperneck head
    lclavicle lhumerus
    lhumerus lradius
    lradius lwrist
    lwrist lhand lthumb
    lhand lfingers
    rclavicle rhumerus
    rhumerus rradius
    rradius rwrist
    rwrist rhand rthumb
    rhand rfingers
  end

#!OML:ASF E:\madness\Project 1\Capture day 1\Session 1\Female1.ASF
:FULLY-SPECIFIED
:DEGREES
837
root 30.281 15.4374 -4.74433 -334.856 -80.5666 339.608
lowerback -1.61957 3.56681 -8.20792
upperback -2.26461 4.81141 1.78163
thorax -2.28629 2.58499 6.40257
lowerneck -1.8985 4.12895 2.69182
upperneck 13.3952 5.40499 -1.30254
head 4.9302 2.65785 -0.661242
rclavicle -4.79226e-014 1.03368e-014
rhumerus -45.2999 10.5999 -68.5856
rradius 61.2898
rwrist 1.83345
rhand -9.88333 -41.0287
rfingers 7.12502
rthumb 16.096 -70.3802
lclavicle -4.79226e-014 1.03368e-014
lhumerus -49.7626 -48.1835 46.3571
lradius 93.8875
lwrist -8.66567
lhand -49.7886 3.59753
lfingers 7.12502
lthumb -22.3862 32.3204
rfemur -5.77785 -10.0897 29.1014
rtibia 30.62
rfoot -33.5246 -22.1824
rtoes 9.54483
lfemur -35.1261 -20.268 2.99226
ltibia 32.5399
lfoot -10.2351 -1.98191
ltoes -21.2415
838
root 30.2795 15.4303 -4.77159 -334.728 -80.3495 339.445
lowerback -1.36416 3.58844 -8.29441
upperback -2.36616 4.81561 1.77693
thorax -2.54469 2.60303 6.42394
lowerneck -1.93598 4.10232 2.87205
upperneck 13.3431 5.32925 -1.06744
head 4.91444 2.64242 -0.616325
rclavicle 6.3052e-014 -1.19271e-015
rhumerus -45.4249 10.5456 -68.6343
rradius 61.5661
rwrist 1.61637
rhand -9.93558 -40.825
rfingers 7.12502
rthumb 16.0457 -70.1806
lclavicle 6.3052e-014 -1.19271e-015
lhumerus -49.0948 -48.2618 45.7838
lradius 94.0185
lwrist -9.35327
lhand -49.6023 3.88717
lfingers 7.12502
lthumb -22.2073 32.6315
rfemur -5.7549 -10.2906 29.3178
rtibia 30.6344
rfoot -33.8656 -21.8897
rtoes 10.8742
lfemur -35.3126 -20.2959 3.19421
ltibia 32.7286
lfoot -10.2058 -2.12239
ltoes -21.2572
839
root 30.273 15.426 -4.79648 -334.196 -80.2213 338.87
lowerback -1.20757 3.61493 -8.29882
upperback -2.4281 4.83572 1.77977
thorax -2.70207 2.62191 6.41506
lowerneck -1.89443 4.12787 3.17969
upperneck 13.1218 5.35284 -1.10287
head 4.83758 2.66969 -0.684018
rclavicle -2.13197e-014 2.0276e-014
rhumerus -45.5726 10.6022 -68.7158
rradius 61.9286
rwrist 1.4877
rhand -9.86215 -41.207
rfingers 7.12502
rthumb 16.1164 -70.5569
lclavicle -2.13197e-014 2.0276e-014
lhumerus -48.707 -48.3199 45.3042
lradius 94.2967
lwrist -9.85819
lhand -49.5782 4.27917
lfingers 7.12502
lthumb -22.1842 33.0262
rfemur -5.73205 -10.5588 29.5417
rtibia 30.6811
rfoot -34.0056 -21.6511
rtoes 11.6187
lfemur -35.4163 -20.3279 3.4353
ltibia 32.9273
lfoot -10.18 -2.17391
ltoes -20.7382
840
root 30.2702 15.4174 -4.82216 -333.627 -80.0233 338.358
lowerback -1.12234 3.59123 -8.27711
upperback -2.47953 4.79562 1.80773
thorax -2.79764 2.60752 6.42602
lowerneck -1.98013 4.20094 3.35569
upperneck 12.8989 5.44832 -1.14767
head 4.78349 2.72512 -0.725279
rclavicle -1.05194e-013 -2.06736e-014
rhumerus -45.652 10.8008 -68.8183
rradius 62.1877
rwrist 1.52179
rhand -9.69864 -41.9355
rfingers 7.12502
rthumb 16.2738 -71.2726
lclavicle -1.05194e-013 -2.06736e-014
lhumerus -48.5897 -48.337 44.9763
lradius 94.7022
lwrist -10.0365
lhand -49.9768 4.79744
lfingers 7.12502
lthumb -22.5668 33.4985
rfemur -5.8361 -10.7976 29.8143
rtibia 30.7426
rfoot -34.252 -21.2437
rtoes 13.0477
lfemur -35.6556 -20.3327 3.7489
ltibia 33.1179
lfoot -10.4062 -2.13585
ltoes -20.8418
841
root 30.2717 15.4073 -4.84966 -332.579 -79.7397 337.524
lowerback -1.1065 3.58192 -8.21586
upperback -2.62563 4.77757 1.88426
thorax -2.95842 2.60968 6.46615
lowerneck -2.07422 4.29843 3.31762
upperneck 12.7515 5.5693 -1.02431
head 4.74478 2.79038 -0.66969
rclavicle -4.13099e-015 1.82882e-014
rhumerus -45.8637 10.9488 -68.8283
rradius 62.4106
rwrist 1.45563
rhand -9.43225 -42.3195
rfingers 7.12502
rthumb 16.5303 -71.6354
lclavicle -4.13099e-015 1.82882e-014
lhumerus -48.3954 -48.4102 44.7333
lradius 95.0613
lwrist -9.84771
lhand -49.9948 4.41826
lfingers 7.12502
lthumb -22.5841 33.1172
rfemur -6.1275 -11.0193 30.2623
rtibia 30.7532
rfoot -34.3184 -21.0792
rtoes 13.811
lfemur -36.1017 -20.285 4.2531
ltibia 33.2774
lfoot -10.8022 -2.14392
ltoes -21.0797
842
root 30.2701 15.4059 -4.86379 -332.89 -79.7504 337.994
lowerback -1.12448 3.60867 -8.30848
upperback -2.73615 4.80894 1.85155
thorax -3.07572 2.63532 6.47912
lowerneck -1.96688 4.52207 3.23555
upperneck 12.6981 5.842 -0.702716
head 4.69433 2.93676 -0.535592
rclavicle 1.00914e-014 3.57812e-015
rhumerus -46.1424 11.1373 -68.8281
rradius 62.6139
rwrist 1.35703
rhand -9.67381 -42.1805
rfingers 7.12502
rthumb 16.2977 -71.5156
lclavicle 1.00914e-014 3.57812e-015
lhumerus -48.2161 -48.4381 44.5894
lradius 95.2719
lwrist -9.67841
lhand -49.9231 4.14091
lfingers 7.12502
lthumb -22.5153 32.8482
rfemur -6.35066 -11.4957 30.1996
rtibia 30.786
rfoot -34.0698 -20.8248
rtoes 13.2315
lfemur -36.3764 -20.4877 4.36975
ltibia 33.4181
lfoot -10.8518 -1.92595
ltoes -20.7827
843
root 30.2561 15.4042 -4.89452 -333.542 -79.38 338.526
lowerback -0.986644 3.53242 -8.5986
upperback -2.7061 4.69848 1.94809
thorax -3.13775 2.59151 6.74163
lowerneck -1.71741 4.81173 3.21619
upperneck 12.6059 6.19412 -0.303929
head 4.60142 3.12851 -0.387929
rclavicle 5.63632e-014 1.51076e-014
rhumerus -46.3498 11.337 -68.8124
rradius 62.7412
rwrist 1.15013
rhand -10.0892 -40.9542
rfingers 7.12502
rthumb 15.8977 -70.3217
lclavicle 5.63632e-014 1.51076e-014
lhumerus -47.9825 -48.4912 44.4316
lradius 95.3701
lwrist -9.73836
lhand -50.2775 4.77308
lfingers 7.12502
lthumb -22.8554 33.4388
rfemur -6.12656 -11.8572 30.3945
rtibia 30.7603
rfoot -34.3259 -20.7509
rtoes 13.3705
lfemur -36.4321 -20.8581 4.59416
ltibia 33.5642
lfoot -10.8057 -1.97423
ltoes -19.8281
844
root 30.2553 15.4019 -4.91474 -333.171 -79.2926 338.313
lowerback -1.01005 3.55688 -8.64685
upperback -2.77808 4.73046 1.97406
thorax -3.21324 2.61496 6.79357
lowerneck -1.62789 4.91444 3.41363
upperneck 12.5039 6.33274 -0.368757
head 4.56076 3.20354 -0.440841
rclavicle -7.39526e-014 4.37326e-015
rhumerus -46.5337 11.511 -68.7448
rradius 62.8633
rwrist 0.819073
rhand -9.84539 -40.6602
rfingers 7.12502
rthumb 16.1325 -70.0088
lclavicle -7.39526e-014 4.37326e-015
lhumerus -47.8311 -48.6152 44.2248
lradius 95.5802
lwrist -9.55896
lhand -50.5596 5.34766
lfingers 7.12502
lthumb -23.1262 33.9796
rfemur -6.33165 -12.1065 30.5622
rtibia 30.779
rfoot -34.28 -20.6194
rtoes 12.7191
lfemur -36.7148 -20.9056 4.85306
ltibia 33.6898
lfoot -10.5579 -1.9177
ltoes -18.9486
845
root 30.2544 15.4014 -4.93436 -332.589 -79.2598 337.78
lowerback -0.903268 3.58075 -8.63195
upperback -2.8408 4.75223 2.02997
thorax -3.34762 2.63461 6.83365
lowerneck -1.68413 4.94012 3.58177
upperneck 12.5132 6.38231 -0.591883
head 4.59401 3.22562 -0.54067
rclavicle -3.15943e-014 -1.19271e-015
rhumerus -46.7408 11.7916 -68.7147
rradius 62.9865
rwrist 0.61788
rhand -9.65997 -40.5751
rfingers 7.12502
rthumb 16.3111 -69.9092
lclavicle -3.15943e-014 -1.19271e-015
lhumerus -47.8509 -48.6803 44.093
lradius 95.884
lwrist -8.90023
lhand -50.732 5.58725
lfingers 7.12502
lthumb -23.2915 34.1984
rfemur -6.42435 -12.3493 30.7325
rtibia 30.8039
rfoot -34.1526 -20.6001
rtoes 11.4869
lfemur -36.7939 -20.9006 5.05849
ltibia 33.7767
lfoot -10.4036 -1.89259
ltoes -18.4991
846
root 30.2576 15.3952 -4.95136 -332.079 -79.2998 337.293
lowerback -0.787116 3.65687 -8.60707
upperback -2.84226 4.84549 2.06091
thorax -3.43275 2.68513 6.83945
lowerneck -1.58457 5.02885 3.44507
upperneck 12.28 6.4949 -0.400181
head 4.47665 3.28481 -0.453303
rclavicle -4.6848e-014 -5.56597e-015
rhumerus -46.885 11.9805 -68.6774
rradius 63.0224
rwrist 0.525478
rhand -9.96928 -40.4863
rfingers 7.12502
rthumb 16.0132 -69.8445
lclavicle -4.6848e-014 -5.56597e-015
lhumerus -47.6047 -48.6673 43.9
lradius 96.1589
lwrist -8.26668
lhand -50.7965 5.97211
lfingers 7.12502
lthumb -23.3534 34.5754
rfemur -6.53795 -12.5282 30.8459
rtibia 30.881
rfoot -34.0882 -20.5073
rtoes 10.9549
lfemur -36.8323 -20.864 5.2046
ltibia 33.8193
lfoot -10.3991 -1.77004
ltoes -19.3092
847
root 30.2571 15.3895 -4.9711 -332.511 -79.2058 337.875
lowerback -0.758541 3.68266 -8.66589
upperback -2.88976 4.87264 1.96702
thorax -3.50077 2.70284 6.76768
lowerneck -1.52498 5.1307 3.32302
upperneck 12.1284 6.60624 -0.0683451
head 4.3918 3.34988 -0.320378
rclavicle 3.58185e-014 -2.38542e-015
rhumerus -47.0889 11.9916 -68.7028
rradius 62.9376
rwrist 0.589261
rhand -10.1867 -40.3692
rfingers 7.12502
rthumb 15.8039 -69.7441
lclavicle 3.58185e-014 -2.38542e-015
lhumerus -47.2055 -48.7455 43.5645
lradius 96.3713
lwrist -7.90775
lhand -50.6721 6.17404
lfingers 7.12502
lthumb -23.234 34.7925
rfemur -6.7547 -12.7499 30.8944
rtibia 30.9576
rfoot -34.2474 -20.3243
rtoes 11.6884
lfemur -37.0678 -20.9648 5.29787
ltibia 33.8332
lfoot -10.5196 -1.49696
ltoes -20.8302
848
root 30.2446 15.3904 -4.99117 -333.435 -79.0793 338.855
lowerback -0.641182 3.673 -8.7531
upperback -2.95556 4.84171 1.81776
thorax -3.62502 2.69405 6.64956
lowerneck -1.44769 5.18159 3.45624
upperneck 11.9129 6.67148 -0.0472906
head 4.3047 3.38958 -0.338945
rclavicle 8.4704e-014 9.54166e-015
rhumerus -47.4868 12.0396 -68.8171
rradius 62.942
rwrist 0.651459
rhand -9.92998 -40.6922
rfingers 7.12502
rthumb 16.0511 -70.0473
lclavicle 8.4704e-014 9.54166e-015
lhumerus -47.0055 -48.96 43.2538
lradius 96.5889
lwrist -7.65417
lhand -50.5681 6.05687
lfingers 7.12502
lthumb -23.1343 34.6878
rfemur -6.77631 -12.9656 30.8643
rtibia 31.0131
rfoot -34.6856 -19.9088
rtoes 13.8131
lfemur -37.1546 -21.237 5.31028
ltibia 33.8254
lfoot -10.5868 -1.28649
ltoes -20.9961
849
root 30.2425 15.3829 -5.00799 -332.934 -78.9974 338.369
lowerback -0.446599 3.72066 -8.6385
upperback -2.98157 4.8881 1.78365
thorax -3.75677 2.71961 6.53173
lowerneck -1.75793 5.27317 3.41712
upperneck 12.1146 6.75976 0.185249
head 4.42934 3.44215 -0.238015
rclavicle -2.74478e-014 -3.97569e-015
rhumerus -47.8473 12.1686 -68.8348
rradius 63.0604
rwrist 0.612765
rhand -9.37981 -41.4056
rfingers 7.12502
rthumb 16.5808 -70.7173
lclavicle -2.74478e-014 -3.97569e-015
lhumerus -46.7789 -49.0617 42.9303
lradius 96.8635
lwrist -7.2738
lhand -50.4739 5.59851
lfingers 7.12502
lthumb -23.0439 34.2408
rfemur -6.83846 -12.9136 31.102
rtibia 31.0777
rfoot -35.1022 -19.5379
rtoes 16.0046
lfemur -37.2264 -21.3496 5.58544
ltibia 33.8454
lfoot -10.5716 -1.15372
ltoes -20.7892
